solid baseplate_surround_cover_v7_20180321
facet normal -0.3426218857589957 0.001119647515680185 0.9394727190229584
  outer loop
    vertex 48.8309384270753 11.747233244084262 -0.6230161593890226
    vertex 61.2597276773106 2.6477538669912914 3.919931619265791
    vertex 61.260221215695715 11.747233425960049 3.9185775679237382
  endloop
endfacet
facet normal -0.3426218857589957 0.001119647515680185 0.9394727190229584
  outer loop
    vertex 61.2597276773106 2.6477538669912914 3.919931619265791
    vertex 48.8309384270753 11.747233244084262 -0.6230161593890226
    vertex 48.82474173372298 2.647754048867234 -0.6059931808560199
  endloop
endfacet
facet normal -0.00035698084346824947 -0.9999994554450842 0.000980649892918036
  outer loop
    vertex 45.88108651225418 1.1525581128587326 3.08776553803799
    vertex 62.857007156845135 1.1470515178195244 3.917156922424788
    vertex 61.13504975226924 1.1525573195227328 8.6397813551503
  endloop
endfacet
facet normal -0.00035698084346824947 -0.9999994554450842 0.000980649892918036
  outer loop
    vertex 62.857007156845135 1.1470515178195244 3.917156922424788
    vertex 45.88108651225418 1.1525581128587326 3.08776553803799
    vertex 47.60284846933521 1.1470523111974897 -1.6349300307077181
  endloop
endfacet
facet normal -0.00010731276872905557 -0.9999992638141927 0.001208658364679891
  outer loop
    vertex 48.032162774278575 6.838836706430686 1.5671490647182442
    vertex 48.17097255380042 6.839288036331872 1.952887205714222
    vertex 47.63651189164857 6.840190700846683 2.652265476325056
  endloop
endfacet
facet normal 0.00010731276874622556 0.9999992638141927 -0.0012086583646788197
  outer loop
    vertex 48.03254842050332 7.8880889685150155 1.5660895378804893
    vertex 47.63689753787328 7.8894429629310165 2.651205949487287
    vertex 48.17135820002503 7.888540298416199 1.9518276788764162
  endloop
endfacet
facet normal 0.00038295201074440893 0.9999993731942741 -0.0010521211034528227
  outer loop
    vertex 60.06867443897996 2.6516460871172405 7.1858117945405215
    vertex 48.82474173372298 2.647754048867234 -0.6059931808560199
    vertex 47.63368849539228 2.65164626899318 2.6598869944186863
  endloop
endfacet
facet normal 0.00038295201074440893 0.9999993731942741 -0.0010521211034528227
  outer loop
    vertex 48.82474173372298 2.647754048867234 -0.6059931808560199
    vertex 60.06867443897996 2.6516460871172405 7.1858117945405215
    vertex 61.2597276773106 2.6477538669912914 3.919931619265791
  endloop
endfacet
facet normal -0.00038425162975001684 -0.9999993731942951 0.0010516471376787987
  outer loop
    vertex 47.639885188744636 11.751125464210165 2.6428640158856953
    vertex 61.260221215695715 11.747233425960049 3.9185775679237382
    vertex 60.069167977365026 11.75112564608595 7.1844577431984575
  endloop
endfacet
facet normal -0.00038425162975001684 -0.9999993731942951 0.0010516471376787987
  outer loop
    vertex 61.260221215695715 11.747233425960049 3.9185775679237382
    vertex 47.639885188744636 11.751125464210165 2.6428640158856953
    vertex 48.8309384270753 11.747233244084262 -0.6230161593890226
  endloop
endfacet
facet normal 0.9394755971843256 1.081489574023242e-06 0.34261582318098677
  outer loop
    vertex 48.8309384270753 11.747233244084262 -0.6230161593890226
    vertex 47.63368849539228 2.65164626899318 2.6598869944186863
    vertex 48.82474173372298 2.647754048867234 -0.6059931808560199
  endloop
endfacet
facet normal 0.9394755971843256 1.081489574023242e-06 0.34261582318098677
  outer loop
    vertex 47.63368849539228 2.65164626899318 2.6598869944186863
    vertex 48.8309384270753 11.747233244084262 -0.6230161593890226
    vertex 48.032162774278575 6.838836706430686 1.5671490647182442
  endloop
endfacet
facet normal 0.9394755971843256 1.081489574023242e-06 0.34261582318098677
  outer loop
    vertex 48.032162774278575 6.838836706430686 1.5671490647182442
    vertex 48.8309384270753 11.747233244084262 -0.6230161593890226
    vertex 48.03254842050332 7.8880889685150155 1.5660895378804893
  endloop
endfacet
facet normal 0.9394755971843256 1.081489574023242e-06 0.34261582318098677
  outer loop
    vertex 48.03254842050332 7.8880889685150155 1.5660895378804893
    vertex 48.8309384270753 11.747233244084262 -0.6230161593890226
    vertex 47.63689753787328 7.8894429629310165 2.651205949487287
  endloop
endfacet
facet normal 0.9394755971843256 1.081489574023242e-06 0.34261582318098677
  outer loop
    vertex 47.63689753787328 7.8894429629310165 2.651205949487287
    vertex 48.8309384270753 11.747233244084262 -0.6230161593890226
    vertex 47.639885188744636 11.751125464210165 2.6428640158856953
  endloop
endfacet
facet normal 0.9394755971843256 1.081489574023242e-06 0.34261582318098677
  outer loop
    vertex 47.63651189164857 6.840190700846683 2.652265476325056
    vertex 47.63368849539228 2.65164626899318 2.6598869944186863
    vertex 48.032162774278575 6.838836706430686 1.5671490647182442
  endloop
endfacet
facet normal 0.9409309342901557 -0.0006877468819015644 -0.3385978498160925
  outer loop
    vertex 48.03254842050332 7.8880889685150155 1.5660895378804893
    vertex 48.17097255380042 6.839288036331872 1.952887205714222
    vertex 48.032162774278575 6.838836706430686 1.5671490647182442
  endloop
endfacet
facet normal 0.9409309342901557 -0.0006877468819015644 -0.3385978498160925
  outer loop
    vertex 48.17097255380042 6.839288036331872 1.952887205714222
    vertex 48.03254842050332 7.8880889685150155 1.5660895378804893
    vertex 48.17135820002503 7.888540298416199 1.9518276788764162
  endloop
endfacet
facet normal -0.9394733079010079 -2.8768211356172422e-08 -0.3426221004861437
  outer loop
    vertex 60.06867443897996 2.6516460871172405 7.1858117945405215
    vertex 61.260221215695715 11.747233425960049 3.9185775679237382
    vertex 61.2597276773106 2.6477538669912914 3.919931619265791
  endloop
endfacet
facet normal -0.9394733079010079 -2.8768211356172422e-08 -0.3426221004861437
  outer loop
    vertex 61.260221215695715 11.747233425960049 3.9185775679237382
    vertex 60.06867443897996 2.6516460871172405 7.1858117945405215
    vertex 60.069167977365026 11.75112564608595 7.1844577431984575
  endloop
endfacet
facet normal 0.7945542141103208 0.00032110541639360804 0.6071931305036662
  outer loop
    vertex 48.17135820002503 7.888540298416199 1.9518276788764162
    vertex 47.63651189164857 6.840190700846683 2.652265476325056
    vertex 48.17097255380042 6.839288036331872 1.952887205714222
  endloop
endfacet
facet normal 0.7945542141103208 0.00032110541639360804 0.6071931305036662
  outer loop
    vertex 47.63651189164857 6.840190700846683 2.652265476325056
    vertex 48.17135820002503 7.888540298416199 1.9518276788764162
    vertex 47.63689753787328 7.8894429629310165 2.651205949487287
  endloop
endfacet
facet normal 0.9394879988803514 -2.7009250589065227e-05 0.3425818139222998
  outer loop
    vertex 62.85841699392866 13.246605206787724 3.9147263309691924
    vertex 61.13504975226924 1.1525573195227328 8.6397813551503
    vertex 62.857007156845135 1.1470515178195244 3.917156922424788
  endloop
endfacet
facet normal 0.9394879988803514 -2.7009250589065227e-05 0.3425818139222998
  outer loop
    vertex 61.13504975226924 1.1525573195227328 8.6397813551503
    vertex 62.85841699392866 13.246605206787724 3.9147263309691924
    vertex 61.13599443815651 13.25199997470321 8.637181082578499
  endloop
endfacet
facet normal -0.34260900428248847 0.0010676441953077463 0.9394774772821508
  outer loop
    vertex 46.700891076141026 12.7509309751344 2.299104076224047
    vertex 60.069167977365026 11.75112564608595 7.1844577431984575
    vertex 61.00893235844942 12.750932006699115 7.526212645966079
  endloop
endfacet
facet normal -0.34260900428248847 0.0010676441953077463 0.9394774772821508
  outer loop
    vertex 60.069167977365026 11.75112564608595 7.1844577431984575
    vertex 46.700891076141026 12.7509309751344 2.299104076224047
    vertex 47.639885188744636 11.751125464210165 2.6428640158856953
  endloop
endfacet
facet normal -0.34260900428248847 0.0010676441953077463 0.9394774772821508
  outer loop
    vertex 47.639885188744636 11.751125464210165 2.6428640158856953
    vertex 46.700891076141026 12.7509309751344 2.299104076224047
    vertex 47.63368849539228 2.65164626899318 2.6598869944186863
  endloop
endfacet
facet normal -0.34260900428248847 0.0010676441953077463 0.9394774772821508
  outer loop
    vertex 47.63368849539228 2.65164626899318 2.6598869944186863
    vertex 46.700891076141026 12.7509309751344 2.299104076224047
    vertex 46.69386784329422 1.6514898092822907 2.3184031319082465
  endloop
endfacet
facet normal -0.34260900428248847 0.0010676441953077463 0.9394774772821508
  outer loop
    vertex 61.00785149701146 1.6514899605639637 7.529185517310468
    vertex 60.06867443897996 2.6516460871172405 7.1858117945405215
    vertex 46.69386784329422 1.6514898092822907 2.3184031319082465
  endloop
endfacet
facet normal -0.34260900428248847 0.0010676441953077463 0.9394774772821508
  outer loop
    vertex 60.06867443897996 2.6516460871172405 7.1858117945405215
    vertex 61.00785149701146 1.6514899605639637 7.529185517310468
    vertex 61.00893235844942 12.750932006699115 7.526212645966079
  endloop
endfacet
facet normal -0.34260900428248847 0.0010676441953077463 0.9394774772821508
  outer loop
    vertex 60.06867443897996 2.6516460871172405 7.1858117945405215
    vertex 61.00893235844942 12.750932006699115 7.526212645966079
    vertex 60.069167977365026 11.75112564608595 7.1844577431984575
  endloop
endfacet
facet normal -0.34260900428248847 0.0010676441953077463 0.9394774772821508
  outer loop
    vertex 46.69386784329422 1.6514898092822907 2.3184031319082465
    vertex 60.06867443897996 2.6516460871172405 7.1858117945405215
    vertex 47.63368849539228 2.65164626899318 2.6598869944186863
  endloop
endfacet
facet normal -0.34260900428248847 0.0010676441953077463 0.9394774772821508
  outer loop
    vertex 47.639885188744636 11.751125464210165 2.6428640158856953
    vertex 47.63651189164857 6.840190700846683 2.652265476325056
    vertex 47.63689753787328 7.8894429629310165 2.651205949487287
  endloop
endfacet
facet normal -0.34260900428248847 0.0010676441953077463 0.9394774772821508
  outer loop
    vertex 47.63651189164857 6.840190700846683 2.652265476325056
    vertex 47.639885188744636 11.751125464210165 2.6428640158856953
    vertex 47.63368849539228 2.65164626899318 2.6598869944186863
  endloop
endfacet
facet normal -0.3426090042528613 0.0010676440688154208 0.939477477293099
  outer loop
    vertex 61.13599443815651 13.25199997470321 8.637181082578499
    vertex 60.666323354196585 12.751999650767928 8.465690123259186
    vertex 60.665242492758644 1.6525576046327775 8.468662994603577
  endloop
endfacet
facet normal -0.3426090042528613 0.0010676440688154208 0.939477477293099
  outer loop
    vertex 60.666323354196585 12.751999650767928 8.465690123259186
    vertex 61.13599443815651 13.25199997470321 8.637181082578499
    vertex 45.88897605520509 13.251997920870915 3.0660873048145536
  endloop
endfacet
facet normal -0.3426090042528613 0.0010676440688154208 0.939477477293099
  outer loop
    vertex 60.666323354196585 12.751999650767928 8.465690123259186
    vertex 45.88897605520509 13.251997920870915 3.0660873048145536
    vertex 46.35828207188817 12.751998619203208 3.238581553517142
  endloop
endfacet
facet normal -0.3426090042528613 0.0010676440688154208 0.939477477293099
  outer loop
    vertex 46.35828207188817 12.751998619203208 3.238581553517142
    vertex 45.88897605520509 13.251997920870915 3.0660873048145536
    vertex 45.88108651225418 1.1525581128587326 3.08776553803799
  endloop
endfacet
facet normal -0.3426090042528613 0.0010676440688154208 0.939477477293099
  outer loop
    vertex 61.13504975226924 1.1525573195227328 8.6397813551503
    vertex 60.665242492758644 1.6525576046327775 8.468662994603577
    vertex 45.88108651225418 1.1525581128587326 3.08776553803799
  endloop
endfacet
facet normal -0.3426090042528613 0.0010676440688154208 0.939477477293099
  outer loop
    vertex 60.665242492758644 1.6525576046327775 8.468662994603577
    vertex 61.13504975226924 1.1525573195227328 8.6397813551503
    vertex 61.13599443815651 13.25199997470321 8.637181082578499
  endloop
endfacet
facet normal -0.3426090042528613 0.0010676440688154208 0.939477477293099
  outer loop
    vertex 45.88108651225418 1.1525581128587326 3.08776553803799
    vertex 60.665242492758644 1.6525576046327775 8.468662994603577
    vertex 46.35125883904132 1.6525574533511043 3.2578806092013264
  endloop
endfacet
facet normal -0.3426090042528613 0.0010676440688154208 0.939477477293099
  outer loop
    vertex 45.88108651225418 1.1525581128587326 3.08776553803799
    vertex 46.35125883904132 1.6525574533511043 3.2578806092013264
    vertex 46.35828207188817 12.751998619203208 3.238581553517142
  endloop
endfacet
facet normal 0.00036520334516976417 0.9999994300677173 -0.0010032401294045284
  outer loop
    vertex 61.00785149701146 1.6514899605639637 7.529185517310468
    vertex 46.35125883904132 1.6525574533511043 3.2578806092013264
    vertex 60.665242492758644 1.6525576046327775 8.468662994603577
  endloop
endfacet
facet normal 0.00036520334516976417 0.9999994300677173 -0.0010032401294045284
  outer loop
    vertex 46.35125883904132 1.6525574533511043 3.2578806092013264
    vertex 61.00785149701146 1.6514899605639637 7.529185517310468
    vertex 46.69386784329422 1.6514898092822907 2.3184031319082465
  endloop
endfacet
facet normal 0.9394780131878326 1.248815497887564e-06 0.3426091982639739
  outer loop
    vertex 46.700891076141026 12.7509309751344 2.299104076224047
    vertex 46.35125883904132 1.6525574533511043 3.2578806092013264
    vertex 46.69386784329422 1.6514898092822907 2.3184031319082465
  endloop
endfacet
facet normal 0.9394780131878326 1.248815497887564e-06 0.3426091982639739
  outer loop
    vertex 46.35125883904132 1.6525574533511043 3.2578806092013264
    vertex 46.700891076141026 12.7509309751344 2.299104076224047
    vertex 46.35828207188817 12.751998619203208 3.238581553517142
  endloop
endfacet
facet normal -0.00036629306304600484 -0.9999994300677623 0.001002842730674414
  outer loop
    vertex 46.35828207188817 12.751998619203208 3.238581553517142
    vertex 61.00893235844942 12.750932006699115 7.526212645966079
    vertex 60.666323354196585 12.751999650767928 8.465690123259186
  endloop
endfacet
facet normal -0.00036629306304600484 -0.9999994300677623 0.001002842730674414
  outer loop
    vertex 61.00893235844942 12.750932006699115 7.526212645966079
    vertex 46.35828207188817 12.751998619203208 3.238581553517142
    vertex 46.700891076141026 12.7509309751344 2.299104076224047
  endloop
endfacet
facet normal -0.9394780128334809 -2.7816847393962363e-07 -0.34260919923781463
  outer loop
    vertex 60.665242492758644 1.6525576046327775 8.468662994603577
    vertex 61.00893235844942 12.750932006699115 7.526212645966079
    vertex 61.00785149701146 1.6514899605639637 7.529185517310468
  endloop
endfacet
facet normal -0.9394780128334809 -2.7816847393962363e-07 -0.34260919923781463
  outer loop
    vertex 61.00893235844942 12.750932006699115 7.526212645966079
    vertex 60.665242492758644 1.6525576046327775 8.468662994603577
    vertex 60.666323354196585 12.751999650767928 8.465690123259186
  endloop
endfacet
facet normal 0.04544471069126561 0.9911941908683514 -0.12437384877465757
  outer loop
    vertex 62.914807874236786 13.212037606030758 3.6598452757180717
    vertex 47.61162636537423 13.246603152993877 -1.65628422808222
    vertex 62.85841699392866 13.246605206787724 3.9147263309691924
  endloop
endfacet
facet normal 0.04544471069126561 0.9911941908683514 -0.12437384877465757
  outer loop
    vertex 47.61162636537423 13.246603152993877 -1.65628422808222
    vertex 62.914807874236786 13.212037606030758 3.6598452757180717
    vertex 47.732359279561884 13.212035560904006 -1.8876554077886267
  endloop
endfacet
facet normal 0.13193987940624413 0.9231481929523943 -0.3610945611207612
  outer loop
    vertex 62.903302031831416 13.111677474296064 3.39906772918704
    vertex 47.732359279561884 13.212035560904006 -1.8876554077886267
    vertex 62.914807874236786 13.212037606030758 3.6598452757180717
  endloop
endfacet
facet normal 0.13193987940624413 0.9231481929523943 -0.3610945611207612
  outer loop
    vertex 47.732359279561884 13.212035560904006 -1.8876554077886267
    vertex 62.903302031831416 13.111677474296064 3.39906772918704
    vertex 47.90893065759192 13.111675454503951 -2.0797115947569185
  endloop
endfacet
facet normal 0.20944355614899854 0.7921911627721409 -0.5732072560718198
  outer loop
    vertex 62.82468357085823 12.952364188708417 3.150165250216948
    vertex 47.90893065759192 13.111675454503951 -2.0797115947569185
    vertex 62.903302031831416 13.111677474296064 3.39906772918704
  endloop
endfacet
facet normal 0.20944355614899854 0.7921911627721409 -0.5732072560718198
  outer loop
    vertex 47.90893065759192 13.111675454503951 -2.0797115947569185
    vertex 62.82468357085823 12.952364188708417 3.150165250216948
    vertex 48.12922146024003 12.952362209180375 -2.2193958976267982
  endloop
endfacet
facet normal 0.27267399348837107 0.6072476229038597 -0.7462568041584046
  outer loop
    vertex 62.684310209509334 12.744954686402941 2.9301001314187793
    vertex 48.12922146024003 12.952362209180375 -2.2193958976267982
    vertex 62.82468357085823 12.952364188708417 3.150165250216948
  endloop
endfacet
facet normal 0.27267399348837107 0.6072476229038597 -0.7462568041584046
  outer loop
    vertex 48.12922146024003 12.952362209180375 -2.2193958976267982
    vertex 62.684310209509334 12.744954686402941 2.9301001314187793
    vertex 48.37821923335339 12.7449527593245 -2.2971890619969577
  endloop
endfacet
facet normal 0.31732214587316543 0.3809211821302665 -0.8684501763157918
  outer loop
    vertex 62.49174816038279 12.503583582201355 2.7538694469638645
    vertex 48.37821923335339 12.7449527593245 -2.2971890619969577
    vertex 62.684310209509334 12.744954686402941 2.9301001314187793
  endloop
endfacet
facet normal 0.31732214587316543 0.3809211821302665 -0.8684501763157918
  outer loop
    vertex 48.37821923335339 12.7449527593245 -2.2971890619969577
    vertex 62.49174816038279 12.503583582201355 2.7538694469638645
    vertex 48.63895519018267 12.50358171618367 -2.3077896122748216
  endloop
endfacet
facet normal 0.3403453214697848 0.12863561319900693 -0.9314601124957227
  outer loop
    vertex 62.260120208902684 12.244699917970374 2.6334830267627978
    vertex 48.63895519018267 12.50358171618367 -2.3077896122748216
    vertex 62.49174816038279 12.503583582201355 2.7538694469638645
  endloop
endfacet
facet normal 0.3403453214697848 0.12863561319900693 -0.9314601124957227
  outer loop
    vertex 48.63895519018267 12.50358171618367 -2.3077896122748216
    vertex 62.260120208902684 12.244699917970374 2.6334830267627978
    vertex 48.89366060615647 12.244698117463441 -2.250475138477216
  endloop
endfacet
facet normal 0.9763869015164119 -7.037183065994447e-05 0.21602919616335675
  outer loop
    vertex 62.91340604126695 1.181177104730679 3.6622620678981437
    vertex 62.85841699392866 13.246605206787724 3.9147263309691924
    vertex 62.857007156845135 1.1470515178195244 3.917156922424788
  endloop
endfacet
facet normal 0.9763869015164119 -7.037183065994447e-05 0.21602919616335675
  outer loop
    vertex 62.85841699392866 13.246605206787724 3.9147263309691924
    vertex 62.91340604126695 1.181177104730679 3.6622620678981437
    vertex 62.914807874236786 13.212037606030758 3.6598452757180717
  endloop
endfacet
facet normal 0.9990301882259155 -0.0001252516842386706 -0.044030300081961134
  outer loop
    vertex 62.90192353875938 1.2811254696808982 3.4014442828481464
    vertex 62.914807874236786 13.212037606030758 3.6598452757180717
    vertex 62.91340604126695 1.181177104730679 3.6622620678981437
  endloop
endfacet
facet normal 0.9990301882259155 -0.0001252516842386706 -0.044030300081961134
  outer loop
    vertex 62.914807874236786 13.212037606030758 3.6598452757180717
    vertex 62.90192353875938 1.2811254696808982 3.4014442828481464
    vertex 62.903302031831416 13.111677474296064 3.39906772918704
  endloop
endfacet
facet normal 0.9535947407761999 -0.00017159703088710248 -0.3010930768357702
  outer loop
    vertex 62.82334216289267 1.4400852967712345 3.152477868304221
    vertex 62.903302031831416 13.111677474296064 3.39906772918704
    vertex 62.90192353875938 1.2811254696808982 3.4014442828481464
  endloop
endfacet
facet normal 0.9535947407761999 -0.00017159703088710248 -0.3010930768357702
  outer loop
    vertex 62.903302031831416 13.111677474296064 3.39906772918704
    vertex 62.82334216289267 1.4400852967712345 3.152477868304221
    vertex 62.82468357085823 12.952364188708417 3.150165250216948
  endloop
endfacet
facet normal 0.8431731398031128 -0.00020624934501192076 -0.5376420870577081
  outer loop
    vertex 62.82334216289267 1.4400852967712345 3.152477868304221
    vertex 62.684310209509334 12.744954686402941 2.9301001314187793
    vertex 62.82468357085823 12.952364188708417 3.150165250216948
  endloop
endfacet
facet normal 0.8431731398031128 -0.00020624934501192076 -0.5376420870577081
  outer loop
    vertex 62.684310209509334 12.744954686402941 2.9301001314187793
    vertex 62.82334216289267 1.4400852967712345 3.152477868304221
    vertex 62.683017104570254 1.64722373647911 2.932329473981066
  endloop
endfacet
facet normal 0.6752868098953551 -0.0002268463634360247 -0.737555199915289
  outer loop
    vertex 62.683017104570254 1.64722373647911 2.932329473981066
    vertex 62.49174816038279 12.503583582201355 2.7538694469638645
    vertex 62.684310209509334 12.744954686402941 2.9301001314187793
  endloop
endfacet
facet normal 0.6752868098953551 -0.0002268463634360247 -0.737555199915289
  outer loop
    vertex 62.49174816038279 12.503583582201355 2.7538694469638645
    vertex 62.683017104570254 1.64722373647911 2.932329473981066
    vertex 62.49051128461864 1.888424646450814 2.7560018491393747
  endloop
endfacet
facet normal 0.46137557053760003 -0.00023198351796360815 -0.8872048969064313
  outer loop
    vertex 62.49051128461864 1.888424646450814 2.7560018491393747
    vertex 62.260120208902684 12.244699917970374 2.6334830267627978
    vertex 62.49174816038279 12.503583582201355 2.7538694469638645
  endloop
endfacet
facet normal 0.46137557053760003 -0.00023198351796360815 -0.8872048969064313
  outer loop
    vertex 62.260120208902684 12.244699917970374 2.6334830267627978
    vertex 62.49051128461864 1.888424646450814 2.7560018491393747
    vertex 62.258943656536616 2.147250583275168 2.6355114300169227
  endloop
endfacet
facet normal 0.044710085123169103 -0.9914189167137772 -0.1228394882371262
  outer loop
    vertex 47.60284846933521 1.1470523111974897 -1.6349300307077181
    vertex 62.91340604126695 1.181177104730679 3.6622620678981437
    vertex 62.857007156845135 1.1470515178195244 3.917156922424788
  endloop
endfacet
facet normal 0.044710085123169103 -0.9914189167137772 -0.1228394882371262
  outer loop
    vertex 62.91340604126695 1.181177104730679 3.6622620678981437
    vertex 47.60284846933521 1.1470523111974897 -1.6349300307077181
    vertex 47.72389907118907 1.1811778947460718 -1.8662934690346622
  endloop
endfacet
facet normal 0.13094874987611932 -0.9238034764786123 -0.3597771000938107
  outer loop
    vertex 47.72389907118907 1.1811778947460718 -1.8662934690346622
    vertex 62.90192353875938 1.2811254696808982 3.4014442828481464
    vertex 62.91340604126695 1.181177104730679 3.6622620678981437
  endloop
endfacet
facet normal 0.13094874987611932 -0.9238034764786123 -0.3597771000938107
  outer loop
    vertex 62.90192353875938 1.2811254696808982 3.4014442828481464
    vertex 47.72389907118907 1.1811778947460718 -1.8662934690346622
    vertex 47.90073399640984 1.2811262499017868 -2.0585689794855297
  endloop
endfacet
facet normal 0.2082634638497811 -0.7932323299931424 -0.5721964699986722
  outer loop
    vertex 47.90073399640984 1.2811262499017868 -2.0585689794855297
    vertex 62.82334216289267 1.4400852967712345 3.152477868304221
    vertex 62.90192353875938 1.2811254696808982 3.4014442828481464
  endloop
endfacet
facet normal 0.2082634638497811 -0.7932323299931424 -0.5721964699986722
  outer loop
    vertex 62.82334216289267 1.4400852967712345 3.152477868304221
    vertex 47.90073399640984 1.2811262499017868 -2.0585689794855297
    vertex 48.12130223707727 1.4400860614331712 -2.1986533037733866
  endloop
endfacet
facet normal 0.2713853536642807 -0.6086037131447265 -0.7456215596151742
  outer loop
    vertex 48.12130223707727 1.4400860614331712 -2.1986533037733866
    vertex 62.683017104570254 1.64722373647911 2.932329473981066
    vertex 62.82334216289267 1.4400852967712345 3.152477868304221
  endloop
endfacet
facet normal 0.2713853536642807 -0.6086037131447265 -0.7456215596151742
  outer loop
    vertex 62.683017104570254 1.64722373647911 2.932329473981066
    vertex 48.12130223707727 1.4400860614331712 -2.1986533037733866
    vertex 48.37057243209614 1.6472244808779652 -2.2769999266983216
  endloop
endfacet
facet normal 0.31601277122432303 -0.38249978789262973 -0.8682337477230525
  outer loop
    vertex 48.37057243209614 1.6472244808779652 -2.2769999266983216
    vertex 62.49051128461864 1.888424646450814 2.7560018491393747
    vertex 62.683017104570254 1.64722373647911 2.932329473981066
  endloop
endfacet
facet normal 0.31601277122432303 -0.38249978789262973 -0.8682337477230525
  outer loop
    vertex 62.49051128461864 1.888424646450814 2.7560018491393747
    vertex 48.37057243209614 1.6472244808779652 -2.2769999266983216
    vertex 48.63155722961431 1.888425367263349 -2.2882696553819257
  endloop
endfacet
facet normal 0.3391044413616287 -0.13032917300364588 -0.9316772426720551
  outer loop
    vertex 48.63155722961431 1.888425367263349 -2.2882696553819257
    vertex 62.258943656536616 2.147250583275168 2.6355114300169227
    vertex 62.49051128461864 1.888424646450814 2.7560018491393747
  endloop
endfacet
facet normal 0.3391044413616287 -0.13032917300364588 -0.9316772426720551
  outer loop
    vertex 62.258943656536616 2.147250583275168 2.6355114300169227
    vertex 48.63155722961431 1.888425367263349 -2.2882696553819257
    vertex 48.88647094697876 2.147251278785521 -2.231694476438495
  endloop
endfacet
facet normal -0.8862156581371264 -0.00020173644088164155 -0.46327288564623365
  outer loop
    vertex 47.61162636537423 13.246603152993877 -1.65628422808222
    vertex 47.72389907118907 1.1811778947460718 -1.8662934690346622
    vertex 47.60284846933521 1.1470523111974897 -1.6349300307077181
  endloop
endfacet
facet normal -0.8862156581371264 -0.00020173644088164155 -0.46327288564623365
  outer loop
    vertex 47.72389907118907 1.1811778947460718 -1.8662934690346622
    vertex 47.61162636537423 13.246603152993877 -1.65628422808222
    vertex 47.732359279561884 13.212035560904006 -1.8876554077886267
  endloop
endfacet
facet normal -0.7360211079822155 -0.0006976105024942711 -0.6769582276213345
  outer loop
    vertex 47.732359279561884 13.212035560904006 -1.8876554077886267
    vertex 47.90073399640984 1.2811262499017868 -2.0585689794855297
    vertex 47.72389907118907 1.1811778947460718 -1.8662934690346622
  endloop
endfacet
facet normal -0.7360211079822155 -0.0006976105024942711 -0.6769582276213345
  outer loop
    vertex 47.90073399640984 1.2811262499017868 -2.0585689794855297
    vertex 47.732359279561884 13.212035560904006 -1.8876554077886267
    vertex 47.90893065759192 13.111675454503951 -2.0797115947569185
  endloop
endfacet
facet normal -0.5357213629238474 -0.0011428704582985153 -0.8443940520598963
  outer loop
    vertex 47.90893065759192 13.111675454503951 -2.0797115947569185
    vertex 48.12130223707727 1.4400860614331712 -2.1986533037733866
    vertex 47.90073399640984 1.2811262499017868 -2.0585689794855297
  endloop
endfacet
facet normal -0.5357213629238474 -0.0011428704582985153 -0.8443940520598963
  outer loop
    vertex 48.12130223707727 1.4400860614331712 -2.1986533037733866
    vertex 47.90893065759192 13.111675454503951 -2.0797115947569185
    vertex 48.12922146024003 12.952362209180375 -2.2193958976267982
  endloop
endfacet
facet normal -0.2989214290787148 -0.0015104881748140323 -0.9542765310239022
  outer loop
    vertex 48.37057243209614 1.6472244808779652 -2.2769999266983216
    vertex 48.12922146024003 12.952362209180375 -2.2193958976267982
    vertex 48.37821923335339 12.7449527593245 -2.2971890619969577
  endloop
endfacet
facet normal -0.2989214290787148 -0.0015104881748140323 -0.9542765310239022
  outer loop
    vertex 48.12922146024003 12.952362209180375 -2.2193958976267982
    vertex 48.37057243209614 1.6472244808779652 -2.2769999266983216
    vertex 48.12130223707727 1.4400860614331712 -2.1986533037733866
  endloop
endfacet
facet normal 0.00036820295505983816 0.9999994241108267 -0.0010080697391897416
  outer loop
    vertex 62.85841699392866 13.246605206787724 3.9147263309691924
    vertex 45.88897605520509 13.251997920870915 3.0660873048145536
    vertex 61.13599443815651 13.25199997470321 8.637181082578499
  endloop
endfacet
facet normal 0.00036820295505983816 0.9999994241108267 -0.0010080697391897416
  outer loop
    vertex 45.88897605520509 13.251997920870915 3.0660873048145536
    vertex 62.85841699392866 13.246605206787724 3.9147263309691924
    vertex 47.61162636537423 13.246603152993877 -1.65628422808222
  endloop
endfacet
facet normal -0.9394854723528894 3.090267664102061e-05 -0.34258874220104324
  outer loop
    vertex 45.88108651225418 1.1525581128587326 3.08776553803799
    vertex 47.61162636537423 13.246603152993877 -1.65628422808222
    vertex 47.60284846933521 1.1470523111974897 -1.6349300307077181
  endloop
endfacet
facet normal -0.9394854723528894 3.090267664102061e-05 -0.34258874220104324
  outer loop
    vertex 47.61162636537423 13.246603152993877 -1.65628422808222
    vertex 45.88108651225418 1.1525581128587326 3.08776553803799
    vertex 45.88897605520509 13.251997920870915 3.0660873048145536
  endloop
endfacet
facet normal -0.04188325197254049 -0.0017979833123601206 -0.9991208938162656
  outer loop
    vertex 48.63155722961431 1.888425367263349 -2.2882696553819257
    vertex 48.37821923335339 12.7449527593245 -2.2971890619969577
    vertex 48.63895519018267 12.50358171618367 -2.3077896122748216
  endloop
endfacet
facet normal -0.04188325197254049 -0.0017979833123601206 -0.9991208938162656
  outer loop
    vertex 48.37821923335339 12.7449527593245 -2.2971890619969577
    vertex 48.63155722961431 1.888425367263349 -2.2882696553819257
    vertex 48.37057243209614 1.6472244808779652 -2.2769999266983216
  endloop
endfacet
facet normal 0.21809928561160144 -0.001957933512044597 -0.9759246221466448
  outer loop
    vertex 48.88647094697876 2.147251278785521 -2.231694476438495
    vertex 48.63895519018267 12.50358171618367 -2.3077896122748216
    vertex 48.89366060615647 12.244698117463441 -2.250475138477216
  endloop
endfacet
facet normal 0.21809928561160144 -0.001957933512044597 -0.9759246221466448
  outer loop
    vertex 48.63895519018267 12.50358171618367 -2.3077896122748216
    vertex 48.88647094697876 2.147251278785521 -2.231694476438495
    vertex 48.63155722961431 1.888425367263349 -2.2882696553819257
  endloop
endfacet
facet normal 0.342608991732126 -0.001109982648558884 -0.9394774327905998
  outer loop
    vertex 62.258943656536616 2.147250583275168 2.6355114300169227
    vertex 48.89366060615647 12.244698117463441 -2.250475138477216
    vertex 62.260120208902684 12.244699917970374 2.6334830267627978
  endloop
endfacet
facet normal 0.342608991732126 -0.001109982648558884 -0.9394774327905998
  outer loop
    vertex 48.89366060615647 12.244698117463441 -2.250475138477216
    vertex 62.258943656536616 2.147250583275168 2.6355114300169227
    vertex 48.88647094697876 2.147251278785521 -2.231694476438495
  endloop
endfacet
endsolid baseplate_surround_cover_v7_20180321
